<svg data-name="Слой 1" id="tourism" viewBox="0 0 32 32" xmlns="http://www.w3.org/2000/svg"><path d="M23.485,6.35a2.0331,2.0331,0,0,0-1.92-1.4H9.145a2.0378,2.0378,0,0,0-2.03,2.03V23.73a2.0332,2.0332,0,0,0,1.4,1.92,2.0457,2.0457,0,0,0,1.93,1.4h12.41a2.0314,2.0314,0,0,0,2.03-2.03V8.28A2.0362,2.0362,0,0,0,23.485,6.35ZM8.865,25.05a1.3568,1.3568,0,0,1-1.06-1.32V6.98a1.3484,1.3484,0,0,1,1.34-1.35h12.42a1.3662,1.3662,0,0,1,1.32,1.07,1.3368,1.3368,0,0,1,.03.28V23.73a1.357,1.357,0,0,1-1.35,1.35H9.145A1.3338,1.3338,0,0,1,8.865,25.05Zm15.34-.03a1.3573,1.3573,0,0,1-1.35,1.35h-12.41a1.3449,1.3449,0,0,1-1.13-.61h12.25a2.0314,2.0314,0,0,0,2.03-2.03V7.15a1.3451,1.3451,0,0,1,.61,1.13Z"/><path d="M19.6949,10.89c0-.01.01-.03,0-.05a.4365.4365,0,0,0-.06-.07,5.0286,5.0286,0,0,0-8.61.04c-.01.01-.04.02-.05.03v.06a4.9164,4.9164,0,0,0-.7,2.52,5.0063,5.0063,0,0,0,.69,2.52c.01.02,0,.04.01.06s.04.03.06.05a5.02,5.02,0,0,0,8.6.02c.02-.02.05-.04.06-.07.01-.02,0-.04.01-.05a5.053,5.053,0,0,0,.7-2.53A4.9875,4.9875,0,0,0,19.6949,10.89Zm-6.03-1.51a5.2891,5.2891,0,0,0-.81,1.79,6.1388,6.1388,0,0,1-1.06-.3A4.2754,4.2754,0,0,1,13.6649,9.38Zm-2.71,4.04a4.31,4.31,0,0,1,.49-1.96,6.7447,6.7447,0,0,0,1.26.38,8.4013,8.4013,0,0,0,0,3.16,7.1133,7.1133,0,0,0-1.27.38A4.3031,4.3031,0,0,1,10.955,13.42Zm.83,2.55a8.1855,8.1855,0,0,1,1.06-.3,5.2652,5.2652,0,0,0,.82,1.8A4.387,4.387,0,0,1,11.785,15.97Zm3.21,1.76a3.0769,3.0769,0,0,1-1.47-2.17q.705-.09,1.47-.12Zm0-2.97a14.1383,14.1383,0,0,0-1.62.13,8.5542,8.5542,0,0,1-.13-1.47,8.6415,8.6415,0,0,1,.13-1.47c.51.07,1.06.11,1.62.13Zm0-3.37a13.6856,13.6856,0,0,1-1.47-.11,3.0544,3.0544,0,0,1,1.47-2.16Zm3.89-.52a6.14,6.14,0,0,1-1.06.3,5.4873,5.4873,0,0,0-.81-1.79A4.3921,4.3921,0,0,1,18.885,10.87Zm-3.21-1.75a3.0258,3.0258,0,0,1,1.47,2.16,13.4965,13.4965,0,0,1-1.47.11Zm0,2.96a16.2022,16.2022,0,0,0,1.62-.13,7.7169,7.7169,0,0,1,.14,1.47,8.5648,8.5648,0,0,1-.13,1.47,13.96,13.96,0,0,0-1.63-.13Zm0,5.65V15.45a13.64,13.64,0,0,1,1.47.11A3.0479,3.0479,0,0,1,15.6749,17.73Zm1.34-.26a5.4526,5.4526,0,0,0,.81-1.8,7.1959,7.1959,0,0,1,1.06.3A4.36,4.36,0,0,1,17.015,17.47Zm2.22-2.09a7.3127,7.3127,0,0,0-1.26-.38,9.7636,9.7636,0,0,0,.14-1.58,8.8165,8.8165,0,0,0-.15-1.58,7.7215,7.7215,0,0,0,1.27-.38,4.1654,4.1654,0,0,1,0,3.92Z"/><path d="M15.6749,20.47a.337.337,0,0,1-.34.34h-4.72a.34.34,0,1,1,0-.68h4.72A.3371.3371,0,0,1,15.6749,20.47Z"/><path d="M20.4049,22.61a.3436.3436,0,0,1-.34.34h-9.45a.3373.3373,0,0,1-.34-.34.3437.3437,0,0,1,.34-.34h9.45A.3505.3505,0,0,1,20.4049,22.61Z"/></svg>